<svg xmlns="http://www.w3.org/2000/svg" viewBox="0 0 400 310.2">
<path d="M399.6,235.7c-0.4-13-2.1-26.3-5.1-39.4c-2.9-12.7-7-25.2-12.2-37.3c-2.4-5.6-5-11-7.7-16.3c-7.5-14.4-16.5-27.6-26.7-39.6
	c5.3-4.9,10.1-10.4,14.2-16.5c5.2-7.7,9.3-16.2,12-25.1c2.7-8.9,4.2-18.2,4.4-27.5c0.1-4.7,0-9.3-0.5-14c-0.2-2.3-0.5-4.7-0.9-7
	c-0.2-1.2-0.4-2.3-0.7-3.5L376,7.7l-0.2-0.9l-0.3-1l-1-4l-5.2-0.6c-12.5-1.3-25.2-1.6-38.1-0.6c-12.8,1-25.8,3.4-38.5,7.4
	c-12.7,4-25.1,9.5-36.9,16.8c-5.9,3.6-11.6,7.6-17,12.1c-1.1,0.9-2.2,1.8-3.2,2.8c-6.3-1-12.8-2-19.5-2.6
	c-5.2-0.5-10.6-0.7-16.1-0.6c-5.5-0.1-10.9,0.1-16.1,0.6c-6.7,0.6-13.3,1.5-19.5,2.6c-1.1-0.9-2.1-1.9-3.2-2.7
	c-5.5-4.5-11.2-8.5-17-12.1C132.4,17.6,120,12,107.3,8c-12.7-4-25.7-6.4-38.5-7.4c-12.9-1-25.6-0.7-38.1,0.6l-5.2,0.6l-1,4l-0.3,1
	L24,7.7l-0.4,1.8c-0.2,1.2-0.5,2.3-0.7,3.5c-0.4,2.3-0.7,4.7-0.9,7c-0.5,4.7-0.6,9.3-0.5,14c0.3,9.3,1.7,18.6,4.4,27.5
	c2.7,8.9,6.8,17.4,12,25.1c4.1,6,8.9,11.6,14.2,16.5c-10.2,12-19.2,25.2-26.7,39.6c-2.8,5.3-5.4,10.7-7.7,16.3
	c-5.2,12.1-9.3,24.7-12.2,37.3c-3.1,13.1-4.8,26.4-5.1,39.4L0,249.4l14.5-1.1c18.2-2.9,33.8-3.3,47.9-1.5c7.8,1,15.5,2.9,22.8,5.5
	c7.1,2.6,14.3,6.1,21.4,10.5c6.5,4,12.8,8.7,20.3,14.4l2.1,1.6c6.1,4.7,12.4,10.5,19.2,14.9c8.1,5.2,16.1,10,24.8,12.5
	c3.7,1.1,7.5,1.9,11.5,2.4c0.1,0,0.4,0.1,0.8,0.1c2.3,0.4,8.5,1.5,14.8,1.5c6.3,0,12.5-1.1,14.8-1.5c0.4-0.1,0.6-0.1,0.7-0.1
	c3.9-0.5,7.8-1.4,11.5-2.4c8.7-2.5,16.7-7.3,24.8-12.5c6.8-4.3,13.1-10.2,19.2-14.9l2.1-1.6c7.5-5.7,13.8-10.4,20.3-14.4
	c7.1-4.4,14.3-7.9,21.4-10.5c7.3-2.6,15-4.5,22.8-5.5c14.1-1.9,29.7-1.4,47.9,1.5l14.4,1.1L399.6,235.7z M304.2,34.9
	c9.5-5.6,19.9-10.1,30.9-13.5c9.4-3,19.3-5.1,29.3-6.5c0,0.2,0.1,0.3,0.1,0.5c0.4,2,0.8,4,1.1,6.1c0.6,4.1,1,8.3,1.1,12.4
	c0,0.2,0,0.4,0,0.6c-39.7-8-63.7,16.3-71.2,25.5c-4.9-2.7-10-5.2-15.1-7.5C287.5,45.9,295.5,40,304.2,34.9z M33.2,34.5
	c0-0.2,0-0.4,0-0.6c0.1-4.2,0.5-8.3,1.1-12.4c0.3-2.1,0.7-4.1,1.1-6.1c0-0.2,0.1-0.3,0.1-0.5c10.1,1.4,19.9,3.6,29.3,6.5
	c10.9,3.4,21.3,8,30.9,13.5c8.7,5.1,16.7,11,23.8,17.7c-5.2,2.2-10.2,4.8-15.1,7.5C96.9,50.8,72.9,26.5,33.2,34.5z M128.5,168.6
	c0-7.7,6.3-14,14-14c7.7,0,14,6.3,14,14c0,7.7-6.3,14-14,14C134.8,182.5,128.5,176.3,128.5,168.6z M257.5,182.5c-7.7,0-14-6.3-14-14
	c0-7.7,6.3-14,14-14c7.7,0,14,6.3,14,14C271.5,176.3,265.2,182.5,257.5,182.5z M361.4,222.6L361.4,222.6c-4.4,0.2-9,0.5-13.7,1.1
	c-0.5,0.1-0.9,0.1-1.4,0.2c-30.9-157.2-144.9-110-126.7-21.7c0.2,1,0.3,1.5,0.3,1.5l0,0c37.8,14.8,44.5,44.2,45.2,60.3
	c-0.6,0.5-1.1,1-1.7,1.5l-1.6,1.4c-5.9,5.3-11.5,10.3-17.5,14.8c-7.1,5.4-13.9,9.2-20.8,11.8l-0.1,0c-0.1,0-11.6,3-23.4,3
	c-11.8,0-23.2-3-23.4-3l-0.1,0c-6.8-2.5-13.6-6.4-20.8-11.8c-6-4.5-11.6-9.5-17.5-14.8l-1.6-1.4c-0.5-0.5-1.1-1-1.7-1.5
	c0.6-16.1,7.3-45.5,45.2-60.3l0,0c0,0,0.1-0.5,0.3-1.5c18.2-88.3-95.8-135.5-126.7,21.7c-0.5-0.1-0.9-0.1-1.4-0.2
	c-4.7-0.5-9.3-0.9-13.7-1.1c-4.2-0.2-8.5-0.2-12.9-0.1c0.4-7.1,1.2-14.4,2.5-21.6c2-11.5,5.1-23,9.2-34.2
	c8.4-23,20.4-43.6,35.7-61.2c15.8-18.3,35.4-33.1,56.6-42.9c10.6-4.9,22.1-8.8,34.1-11.5c11.1-2.5,23.2-4,36.1-4.4
	c12.9,0.4,25,1.9,36.1,4.4c12,2.7,23.5,6.5,34.1,11.5c21.2,9.8,40.8,24.6,56.6,42.9c15.3,17.7,27.3,38.3,35.7,61.2
	c4.1,11.2,7.2,22.7,9.2,34.2c1.3,7.2,2.1,14.4,2.5,21.6C369.8,222.4,365.5,222.4,361.4,222.6z M124.4,79.3
	c15.6,3,54.1,15.6,75.6,66.8c21.5-51.1,60-63.7,75.6-66.8c-20.3-13.1-46.7-21-75.6-21C171.1,58.3,144.7,66.2,124.4,79.3z
	 M164.4,257.7l-0.8,1.5l11.6,13.5c6.2,7.3,15.3,11.5,24.9,11.5c9.6,0,18.6-4.2,24.9-11.5l11.6-13.5l-0.8-1.5
	c-7.2-12.9-20.8-20.9-35.6-20.9C185.2,236.8,171.6,244.8,164.4,257.7z"/>
</svg>
