<?xml version="1.0" encoding="utf-8"?>
<!-- Generator: Adobe Illustrator 24.1.2, SVG Export Plug-In . SVG Version: 6.00 Build 0)  -->
<svg version="1.1" id="Layer_1" xmlns="http://www.w3.org/2000/svg" xmlns:xlink="http://www.w3.org/1999/xlink" x="0px" y="0px"
	 viewBox="0 0 50 50" style="enable-background:new 0 0 50 50;" xml:space="preserve">
<path d="M5.9,1.1c-1.2-1.2-3.3-1.2-4.7,0C0,2.4,0,4.5,1.2,5.9L20.4,25L1.2,44.3c-1.2,1.2-1.2,3.3,0,4.8c1.2,1.2,3.3,1.2,4.7,0
	l19.2-19.3l19.2,19.3c1.2,1.2,3.3,1.2,4.7,0c1.2-1.2,1.2-3.3,0-4.8L29.9,25L49.1,5.7c1.2-1.2,1.2-3.3,0-4.8c-1.2-1.2-3.3-1.2-4.7,0
	L25.1,20.2L5.9,1.1z"/>
</svg>
