<svg width="24" height="24" viewBox="0 0 24 24" fill="none" xmlns="http://www.w3.org/2000/svg">
<path fill-rule="evenodd" clip-rule="evenodd" d="M18.5228 14.2366C20.3898 13.0698 21.6993 11.491 22.1267 9.78154C22.2472 9.29933 22.7359 9.00614 23.2181 9.1267C23.7003 9.24725 23.9935 9.73589 23.873 10.2181C23.3003 12.5086 21.6098 14.4299 19.4768 15.763C17.3364 17.1008 14.6716 17.8998 11.9998 17.8998C9.32807 17.8998 6.66323 17.1008 4.52282 15.763C2.3898 14.4299 0.699324 12.5086 0.126694 10.2181C0.00614003 9.73589 0.299326 9.24725 0.78154 9.12669C1.26376 9.00614 1.7524 9.29932 1.87295 9.78154C2.30032 11.491 3.60984 13.0698 5.47682 14.2366C7.33641 15.3989 9.67157 16.0998 11.9998 16.0998C14.3281 16.0998 16.6632 15.3989 18.5228 14.2366Z" fill="black"/>
</svg>
