<svg width="24" height="24" viewBox="0 0 24 24" fill="none" xmlns="http://www.w3.org/2000/svg">
<path fill-rule="evenodd" clip-rule="evenodd" d="M1.87295 14.1183C2.30032 12.4088 3.60984 10.8301 5.47682 9.6632C7.33641 8.50095 9.67157 7.8 11.9998 7.8C14.3281 7.8 16.6632 8.50095 18.5228 9.6632C20.3898 10.8301 21.6993 12.4088 22.1267 14.1183C22.2472 14.6005 22.7359 14.8937 23.2181 14.7731C23.7003 14.6526 23.9935 14.1639 23.873 13.6817C23.3003 11.3912 21.6098 9.46994 19.4768 8.1368C17.3364 6.79905 14.6716 6 11.9998 6C9.32807 6 6.66323 6.79905 4.52282 8.1368C2.3898 9.46994 0.699322 11.3912 0.126694 13.6817C0.00614017 14.1639 0.299325 14.6526 0.78154 14.7731C1.26376 14.8937 1.7524 14.6005 1.87295 14.1183ZM8.90041 13.8999C8.90041 12.1878 10.2883 10.7999 12.0004 10.7999C13.7125 10.7999 15.1004 12.1878 15.1004 13.8999C15.1004 15.6119 13.7125 16.9999 12.0004 16.9999C10.2883 16.9999 8.90041 15.6119 8.90041 13.8999ZM12.0004 8.99985C9.29421 8.99985 7.10041 11.1937 7.10041 13.8999C7.10041 16.606 9.29421 18.7999 12.0004 18.7999C14.7066 18.7999 16.9004 16.606 16.9004 13.8999C16.9004 11.1937 14.7066 8.99985 12.0004 8.99985Z" fill="black"/>
</svg>
