<svg xmlns="http://www.w3.org/2000/svg" viewBox="0 0 518 518" xml:space="preserve">
<path d="M516.4,252.3C462.5,161.1,364.5,103.8,259,103.8S55.4,161.1,1.6,252.3c-2.2,3.2-2.2,7.7,0,11
	C55.5,354.5,153.5,411.8,259,411.8s203.6-57.2,257.4-148.4C518.5,260,518.5,255.6,516.4,252.3L516.4,252.3z M259,389.7
	c-95.7,0-184.8-50.6-234.3-131.9C74.2,176.3,163.3,125.9,259,125.9s184.8,50.6,234.3,131.9C443.9,339.2,354.7,389.7,259,389.7z"/>
<path d="M259,158.8c-54.9,0-99,44-99,99s44,99,99,99s99-44,99-99S314,158.8,259,158.8z M259,334.8c-42.9,0-77-34.2-77-77
	c0-42.8,34.2-77,77-77s77,34.2,77,77S301.9,334.8,259,334.8L259,334.8z"/>
<path d="M259,213.8v22c12,0,22,9.9,22,22c0,12-9.9,22-22,22c-12,0-22-9.9-22-22h-22c0,24.2,19.7,44,44,44s44-19.7,44-44
	S283.2,213.8,259,213.8L259,213.8z"/>
</svg>
