<?xml version="1.0" encoding="utf-8"?>
<!-- Generator: Adobe Illustrator 24.1.2, SVG Export Plug-In . SVG Version: 6.00 Build 0)  -->
<svg version="1.1" id="Layer_1" xmlns="http://www.w3.org/2000/svg" xmlns:xlink="http://www.w3.org/1999/xlink" x="0px" y="0px"
	 viewBox="0 0 50 50" style="enable-background:new 0 0 50 50;" xml:space="preserve">
<path d="M49.8,24.1c0.4-0.6,0.2-1.4-0.4-1.8c-0.6-0.4-1.4-0.2-1.8,0.4C41,32.3,33.4,37,25.4,37S9.9,32.1,3.4,22.7
	c-0.4-0.6-1.2-0.8-1.8-0.4c-0.6,0.4-0.8,1.2-0.4,1.8C2.9,27,5,29.3,7,31.3L2.5,36c-0.6,0.6-0.4,1.4,0,1.8c0.2,0.2,0.6,0.4,1,0.4
	s0.6-0.2,1-0.4l4.5-4.7c2.9,2.5,6.1,4.3,9.2,5.3l-2.5,6.1c-0.2,0.6,0,1.4,0.8,1.8c0.2,0,0.4,0,0.4,0c0.6,0,1-0.4,1.2-0.8l2.7-6.3
	c1.4,0.2,2.9,0.4,4.3,0.4s2.9-0.2,4.3-0.4l2.7,6.3c0.2,0.6,0.8,0.8,1.2,0.8c0.2,0,0.4,0,0.4,0c0.6-0.2,1-1,0.8-1.8l-2.5-6.1
	c3.3-1,6.3-2.9,9.2-5.3l4.5,4.7c0.2,0.2,0.6,0.4,1,0.4c0.4,0,0.6-0.2,1-0.4c0.6-0.6,0.6-1.4,0-1.8l-4.5-4.7
	C45.9,29.3,47.7,27,49.8,24.1z"/>
</svg>
