<svg xmlns="http://www.w3.org/2000/svg" viewBox="0 0 24 24" xml:space="preserve">
	<path d="M510.4,250.6C457.1,160.4,360.3,103.8,256,103.8S54.8,160.4,1.6,250.6c-2.2,3.2-2.2,7.6,0,10.9C54.9,351.6,151.7,408.2,256,408.2s201.2-56.5,254.4-146.7C512.5,258.2,512.5,253.8,510.4,250.6L510.4,250.6z M256,386.4c-94.6,0-182.7-50-231.6-130.4c48.9-80.5,137-130.4,231.6-130.4s182.7,50,231.6,130.4C438.7,336.5,350.6,386.4,256,386.4z"/>
	<path d="M256,158.2c-54.3,0-97.8,43.5-97.8,97.8s43.5,97.8,97.8,97.8s97.8-43.5,97.8-97.8S310.3,158.2,256,158.2z M256,332.1c-42.4,0-76.1-33.8-76.1-76.1s33.8-76.1,76.1-76.1s76.1,33.8,76.1,76.1S298.4,332.1,256,332.1L256,332.1z"/>
	<path d="M256,212.5v21.7c11.9,0,21.7,9.8,21.7,21.7c0,11.9-9.8,21.7-21.7,21.7c-11.9,0-21.7-9.8-21.7-21.7h-21.7c0,23.9,19.5,43.5,43.5,43.5s43.5-19.5,43.5-43.5S279.9,212.5,256,212.5L256,212.5z"/>
</svg>
