<?xml version="1.0" encoding="utf-8"?>
<!-- Generator: Adobe Illustrator 24.1.2, SVG Export Plug-In . SVG Version: 6.00 Build 0)  -->
<svg version="1.1" id="Layer_1" xmlns="http://www.w3.org/2000/svg" xmlns:xlink="http://www.w3.org/1999/xlink" x="0px" y="0px"
	 viewBox="0 0 50 50" style="enable-background:new 0 0 50 50;" xml:space="preserve">
<path d="M49.8,24.3C44.6,15.6,35.2,10.1,25,10.1S5.4,15.6,0.2,24.3c-0.2,0.3-0.2,0.7,0,1.1C5.4,34.1,14.8,39.6,25,39.6
	s19.7-5.5,24.8-14.2C50.1,25.1,50.1,24.7,49.8,24.3L49.8,24.3z M25,37.5c-9.2,0-17.8-4.8-22.6-12.6C7.2,17.1,15.8,12.3,25,12.3
	s17.8,4.8,22.6,12.6C42.9,32.6,34.2,37.5,25,37.5z"/>
<path d="M25,15.4c-5.3,0-9.6,4.2-9.6,9.5s4.2,9.5,9.6,9.5s9.6-4.2,9.6-9.5S30.3,15.4,25,15.4z M25,32.2c-4.1,0-7.4-3.3-7.4-7.4
	s3.3-7.4,7.4-7.4s7.4,3.3,7.4,7.4S29.1,32.2,25,32.2L25,32.2z"/>
<path d="M25,20.7v2.1c1.2,0,2.1,0.9,2.1,2.1c0,1.1-1,2.1-2.1,2.1c-1.2,0-2.1-0.9-2.1-2.1h-2.1c0,2.3,1.9,4.2,4.2,4.2
	c2.3,0,4.2-1.9,4.2-4.2S27.3,20.7,25,20.7L25,20.7z"/>
</svg>
