<?xml version="1.0" encoding="utf-8"?>
<!-- Generator: Adobe Illustrator 24.1.2, SVG Export Plug-In . SVG Version: 6.00 Build 0)  -->
<svg version="1.1" id="Layer_1" xmlns="http://www.w3.org/2000/svg" xmlns:xlink="http://www.w3.org/1999/xlink" x="0px" y="0px"
	 viewBox="0 0 50 50" style="enable-background:new 0 0 50 50;" xml:space="preserve">
<path d="M24,0c-1.4,0.2-2.9,0.6-4.2,1.2c-5.2,2.5-8.1,8.2-7,13.9c0.9,4.8,4.5,8.8,9.2,10c1.8,0.5,3.8,0.6,5.6,0.3
	c3.2-0.6,6.1-2.4,8.1-5c1.4-1.8,2.2-4,2.5-6.3c0.1-1.1,0-2.3-0.1-3.4c-0.2-1.3-0.6-2.6-1.2-3.7c-1.8-3.7-5.2-6.2-9.3-6.9
	C27,0,26.6,0,25.6,0C25.1,0,24.5,0,24,0 M26.7,6.7c2.1,0.5,3.8,2,4.6,4c0.3,0.8,0.4,1.3,0.4,2.2c0,1.7-0.7,3.4-2,4.5
	c-0.8,0.7-1.6,1.2-2.8,1.5c-0.5,0.1-0.6,0.1-1.5,0.1c-0.9,0-1,0-1.5-0.1c-1.1-0.3-2-0.8-2.8-1.5c-0.6-0.5-1-1.2-1.4-1.9
	c-0.7-1.4-0.8-2.9-0.4-4.4c0.2-0.6,0.7-1.6,1-2.1c1-1.3,2.4-2.2,4-2.5C25.1,6.5,25.9,6.5,26.7,6.7 M12.9,25.7
	c-0.7,0.1-1.5,0.6-1.9,1.2c-0.7,0.9-0.9,1.8-0.6,2.7c0.3,0.9,1,1.6,2.8,2.8c2.5,1.7,5.5,2.6,9.5,3.1c0.4,0,0.7,0.1,0.7,0.1
	c0,0-0.9,1-4.6,4.5c-4.9,4.7-5.3,5-5.5,5.4c-0.4,0.6-0.6,1.3-0.4,2c0.3,1.3,1.2,2.2,2.5,2.7c0.8,0.2,1.8,0.1,2.5-0.4
	c0.4-0.3,2.8-2.5,6.6-6.1c1.5-1.4,1.6-1.5,2.1-1.3c0.1,0.1,1,0.9,1.9,1.8c1.5,1.5,3.1,3,5.1,4.8c0.7,0.6,1,0.9,1.6,1.1
	c0.3,0.1,0.4,0.1,1,0.1c0.5,0,0.7,0,1-0.1c0.6-0.2,1-0.5,1.5-0.9c0.4-0.4,0.6-0.8,0.8-1.3c0.1-0.2,0.1-0.4,0.1-0.9
	c0-1-0.2-1.4-1.2-2.4c-0.7-0.7-1-1-6-5.8c-1.1-1-2.1-2-3.2-3.1l-0.2-0.2l0.2,0c0.1,0,0.6-0.1,1-0.1c4.3-0.6,7.5-1.8,10.1-3.9
	c1.1-0.9,1.6-1.5,1.8-2.2c0.2-0.8-0.2-2-1-2.8c-0.7-0.7-1.6-1-2.6-0.9c-0.8,0.1-1.3,0.3-2.2,0.9c-2.6,1.7-5.7,2.7-9,2.8
	c-2,0.1-4.1-0.1-6-0.7c-1.8-0.5-3.1-1.1-5-2.2c-0.6-0.4-1.2-0.6-1.6-0.7C13.8,25.7,13.4,25.6,12.9,25.7"/>
</svg>
