<svg viewBox="0 0 14 24" fill="none" xmlns="http://www.w3.org/2000/svg"><path
	d="M6.113.841a5.684 5.684 0 0 0-1.855.546 5.735 5.735 0 0 0-3.125 6.187c.395 2.139 2.01 3.903 4.097 4.475.802.22 1.688.261 2.493.117a5.791 5.791 0 0 0 3.592-2.214 5.746 5.746 0 0 0 1.1-2.809 7.57 7.57 0 0 0-.045-1.508 5.524 5.524 0 0 0-.54-1.657C11.016 2.33 9.517 1.21 7.688.884c-.222-.039-.395-.051-.84-.057a8.588 8.588 0 0 0-.735.014M7.32 3.789a2.809 2.809 0 0 1 2.045 1.782c.121.338.159.577.159.996a2.682 2.682 0 0 1-.884 2.02c-.353.33-.73.534-1.238.67-.206.055-.267.061-.659.061-.391 0-.452-.006-.658-.061-.509-.136-.885-.34-1.238-.67a2.7 2.7 0 0 1-.613-.827 2.83 2.83 0 0 1-.185-1.973c.069-.262.29-.722.442-.922a2.866 2.866 0 0 1 1.776-1.096 3.835 3.835 0 0 1 1.053.02m-6.132 8.485c-.319.05-.653.255-.856.526-.314.419-.403.807-.273 1.192.139.414.437.713 1.253 1.26 1.105.739 2.44 1.181 4.216 1.396.159.019.292.038.296.042.017.016-.406.425-2.067 1.998-2.206 2.087-2.351 2.228-2.462 2.395-.186.28-.249.574-.187.88.112.56.529 1 1.12 1.183.352.109.783.046 1.1-.162.177-.116 1.251-1.118 2.92-2.725.664-.639.727-.677.919-.56.047.029.43.384.852.789.681.655 1.385 1.322 2.263 2.147.306.287.456.391.702.484.136.051.195.059.426.059.227 0 .297-.009.455-.062.26-.086.462-.21.653-.402.178-.178.287-.345.367-.561.041-.109.052-.189.053-.383.001-.431-.093-.613-.552-1.064-.323-.317-.458-.446-2.691-2.568a204.29 204.29 0 0 1-1.432-1.368l-.079-.083.079-.013c.043-.007.247-.034.452-.062 1.911-.254 3.329-.801 4.48-1.728.507-.408.707-.657.782-.975.086-.368-.1-.91-.428-1.243a1.349 1.349 0 0 0-1.159-.395c-.344.044-.6.148-.984.4-1.14.749-2.55 1.193-3.989 1.257a8.387 8.387 0 0 1-2.68-.304c-.787-.22-1.4-.495-2.221-.997-.283-.173-.532-.284-.731-.326a2.01 2.01 0 0 0-.597-.027" fill-rule="evenodd"/></svg>
