<?xml version="1.0" encoding="utf-8"?>
<!-- Generator: Adobe Illustrator 24.1.2, SVG Export Plug-In . SVG Version: 6.00 Build 0)  -->
<svg version="1.1" id="Layer_1" xmlns="http://www.w3.org/2000/svg" xmlns:xlink="http://www.w3.org/1999/xlink" x="0px" y="0px"
	 viewBox="0 0 50 50" style="enable-background:new 0 0 50 50;" xml:space="preserve">
<path d="M27.5,2.5C27.5,1.3,26.5,0,25,0c-1.3,0-2.5,1.1-2.5,2.5v20h-20C1.3,22.5,0,23.5,0,25c0,1.3,1.1,2.5,2.5,2.5h20v20
	c0,1.3,1.1,2.5,2.5,2.5c1.3,0,2.5-1.1,2.5-2.5v-20h20c1.3,0,2.5-1.1,2.5-2.5c0-1.3-1.1-2.5-2.5-2.5h-20L27.5,2.5z"/>
</svg>
