<?xml version="1.0" encoding="utf-8"?>
<!-- Generator: Adobe Illustrator 24.1.2, SVG Export Plug-In . SVG Version: 6.00 Build 0)  -->
<svg version="1.1" id="Layer_1" xmlns="http://www.w3.org/2000/svg" x="0px" y="0px"
	 viewBox="0 0 50 50" style="enable-background:new 0 0 50 50;" xml:space="preserve">
<path d="M22.8,4.1c-5,0.5-9.5,2.6-13,6.2c-1.3,1.3-2.4,2.8-3.4,4.3c-0.7,1.2-1.4,2.7-1.7,3.6c-0.1,0.4-0.2,0.6-0.3,0.6
	c0,0-0.3-0.5-0.7-1.1c-0.3-0.6-0.7-1.2-0.9-1.4c-0.3-0.5-0.9-0.7-1.4-0.7c-1,0-1.8,0.7-1.8,1.7c0,0.3,0,0.5,0.2,0.8
	c0.4,0.9,4.2,7.4,4.5,7.7c0.4,0.4,0.8,0.5,1.4,0.5c0.4,0,0.9-0.3,4.2-2.2c2.1-1.2,3.9-2.3,4-2.4c1.1-1.1,0.3-3-1.3-3
	c-0.5,0-0.5,0-3.2,1.6c-1.1,0.7-2.1,1.2-2.1,1.2c0,0,0.1-0.4,0.2-0.8c0.6-2.2,1.8-4.6,3.3-6.4c0.6-0.8,2.2-2.3,2.9-2.9
	c2.6-2,5.8-3.3,9.1-3.6c6.7-0.7,13.2,2.5,16.8,8.2l0.4,0.7l0.3-0.2c0.2-0.1,0.8-0.5,1.5-0.9c1.1-0.6,1.3-0.8,1.2-0.9
	c-0.2-0.4-0.5-0.7-0.7-1.1c-4-6-10.7-9.5-17.9-9.5C24,4,23.2,4.1,22.8,4.1 M39.8,26.6c-1.4,0.8-2.7,1.6-4,2.4
	c-0.2,0.2-0.4,0.4-0.5,0.6c-0.6,1.2,0.4,2.6,1.7,2.5c0.4,0,0.7-0.2,2.8-1.4c1.3-0.7,2.4-1.3,2.4-1.3c0.1,0.1-0.5,1.9-0.9,2.8
	c-2.1,5.1-6.5,9-11.8,10.4c-1.8,0.5-2.6,0.6-4.7,0.6c-2.1,0-3.1-0.1-4.9-0.7c-4.2-1.2-7.8-4-10.1-7.6c-0.3-0.5-0.4-0.6-0.5-0.5
	c-0.4,0.2-2.8,1.6-2.9,1.7c0,0,0.3,0.6,0.7,1.2c2.9,4.4,7.4,7.5,12.5,8.9c2,0.5,2.9,0.6,5.3,0.6c2,0,2.4,0,3.5-0.2
	c4.5-0.8,8.4-2.8,11.5-6c2.2-2.2,3.9-4.8,4.9-7.7c0.2-0.4,0.3-0.8,0.4-0.9c0,0,0.4,0.4,0.7,1.1c0.8,1.5,1,1.7,1.5,1.9
	c0.9,0.4,2,0.1,2.4-0.8c0-0.1,0.1-0.1,0.1-0.2c0.2-0.8,0.2-0.9-2.1-4.9c-1.2-2-2.2-3.8-2.3-4c-0.3-0.4-0.8-0.6-1.4-0.6
	C43.5,24.4,43.5,24.4,39.8,26.6"/>
</svg>
