<svg viewBox="0 0 30 26" fill="none" xmlns="http://www.w3.org/2000/svg"><path
	d="M13.825 1.055c-2.813.292-5.314 1.48-7.302 3.468a12.042 12.042 0 0 0-1.888 2.433c-.378.652-.765 1.488-.939 2.032-.063.199-.128.362-.143.362-.016 0-.184-.273-.376-.607-.191-.333-.41-.693-.487-.798a.953.953 0 0 0-.79-.395.974.974 0 0 0-.905 1.38c.218.479 2.38 4.161 2.544 4.332.219.228.441.306.779.277.227-.019.507-.166 2.374-1.243 1.165-.671 2.185-1.288 2.267-1.371.622-.625.178-1.675-.709-1.675-.299 0-.264-.016-1.797.87-.645.373-1.179.671-1.186.663-.008-.008.04-.22.108-.472.332-1.24 1.012-2.56 1.861-3.611.358-.443 1.215-1.283 1.639-1.607a10.202 10.202 0 0 1 5.118-2.04c3.74-.38 7.435 1.411 9.44 4.577l.233.368.155-.092c.085-.051.475-.278.866-.503.598-.344.705-.424.667-.494a17.633 17.633 0 0 0-.387-.593 11.993 11.993 0 0 0-10.06-5.309c-.375.003-.862.025-1.082.048m9.549 12.608a102.266 102.266 0 0 0-2.258 1.325 1.073 1.073 0 0 0-.268.34c-.324.67.21 1.462.953 1.411.25-.017.399-.09 1.594-.78.725-.419 1.327-.754 1.337-.744.039.04-.288 1.09-.498 1.597-1.188 2.87-3.662 5.044-6.64 5.834-1.011.269-1.465.324-2.619.322-1.165-.002-1.73-.078-2.738-.368-2.351-.678-4.404-2.217-5.689-4.266-.168-.268-.224-.324-.291-.288-.228.123-1.587.917-1.617.946-.02.019.152.315.381.659a12.02 12.02 0 0 0 7.009 4.972c1.1.285 1.651.349 2.995.347 1.124-.003 1.323-.016 1.975-.134 2.549-.46 4.688-1.569 6.477-3.359a11.903 11.903 0 0 0 2.773-4.302c.092-.247.182-.468.201-.49.018-.022.199.248.401.6.47.82.561.938.818 1.062a1.002 1.002 0 0 0 1.382-.577c.139-.421.101-.509-1.176-2.727-.655-1.138-1.245-2.141-1.311-2.231-.175-.236-.454-.362-.801-.362-.288 0-.307.009-2.39 1.213" fill-rule="evenodd"/></svg>
