<?xml version="1.0" encoding="utf-8"?>
<!-- Generator: Adobe Illustrator 24.1.2, SVG Export Plug-In . SVG Version: 6.00 Build 0)  -->
<svg version="1.1" id="Layer_1" xmlns="http://www.w3.org/2000/svg" x="0px" y="0px"
	 viewBox="0 0 50 50" style="enable-background:new 0 0 50 50;" xml:space="preserve">
<path d="M49.4,46.6L35.1,32.3c2.9-3.3,4.6-7.7,4.6-12.4c0-10.8-8.9-19.5-19.7-19.5S0.2,9.1,0.2,19.9s8.9,19.5,19.7,19.5
	c4.6,0,8.9-1.7,12.2-4.1l14.3,14.3c0.8,0.8,2.1,0.8,2.9,0C50.2,48.7,50.2,47.5,49.4,46.6z M4.4,19.9c0-8.3,7-15.3,15.5-15.3
	s15.5,7,15.5,15.3s-7,15.3-15.5,15.3S4.4,28.4,4.4,19.9z"/>
</svg>
