<svg width="17" height="17" fill="none" xmlns="http://www.w3.org/2000/svg">
	<path
		d="M7.224 1.275a6.559 6.559 0 0 0-5.27 3.573 6.894 6.894 0 0 0-.641 2.01c-.07.451-.07 1.416 0 1.868a6.72 6.72 0 0 0 1.277 3.032 8.2 8.2 0 0 0 1.235 1.236 6.722 6.722 0 0 0 3.033 1.276c.451.07 1.416.07 1.868 0a6.803 6.803 0 0 0 2.718-1.053l.323-.216 1.335 1.33c1.453 1.448 1.471 1.463 1.773 1.463.42 0 .92-.499.92-.918-.001-.303-.016-.321-1.464-1.774l-1.33-1.335.216-.323a6.803 6.803 0 0 0 1.053-2.718c.07-.452.07-1.417 0-1.868-.368-2.374-1.89-4.278-4.131-5.169a7.145 7.145 0 0 0-1.416-.37 8.671 8.671 0 0 0-1.499-.044M8.6 3.073c1.321.218 2.539 1.038 3.262 2.197.324.52.568 1.184.665 1.813a6.99 6.99 0 0 1 0 1.417 4.897 4.897 0 0 1-.906 2.167c-.178.241-.66.727-.912.92a4.786 4.786 0 0 1-5.432.28 4.898 4.898 0 0 1-1.818-2.038 4.77 4.77 0 0 1-.432-2.427c.041-.47.09-.72.22-1.109a4.788 4.788 0 0 1 4.021-3.261 6.869 6.869 0 0 1 1.332.041"
		fill-rule="evenodd"/>
</svg>
