<?xml version="1.0" encoding="utf-8"?>
<!-- Generator: Adobe Illustrator 24.1.2, SVG Export Plug-In . SVG Version: 6.00 Build 0)  -->
<svg version="1.1" id="Layer_1" xmlns="http://www.w3.org/2000/svg" xmlns:xlink="http://www.w3.org/1999/xlink" x="0px" y="0px"
	 viewBox="0 0 50 50" style="enable-background:new 0 0 50 50;" xml:space="preserve">
<path d="M25,13.1C4.2,21.3,1.6,22.4,1.4,22.6c-0.5,0.5-0.5,1.3,0,1.8c0,0,0,0,0,0c0.2,0.2,1.6,0.8,6,2.4c3.1,1.2,5.7,2.2,5.7,2.2
	c0,0,1,3.2,2.2,7.2c1.2,3.9,2.2,7.3,2.3,7.4c0.3,0.5,0.9,0.8,1.4,0.6c0.2-0.1,1.2-0.9,3.1-2.4c4.2-3.4,4-3.3,4.5-3.4
	c0.9-0.2,0.8-0.3,7.1,4.5c3.2,2.4,5.9,4.4,6.1,4.4c0.6,0.2,1.3-0.1,1.6-0.7c0.2-0.4,8.5-41,8.5-41.5c0-0.3-0.3-0.8-0.6-1
	C48.8,3.8,50.4,3.2,25,13.1 M39.4,13.1c0,0.1,0.1,0.2,0.1,0.3c0,0-4.1,4-9.2,8.8s-9.3,8.9-9.5,9.1c-0.3,0.4-0.6,1-0.7,1.5
	c-0.1,0.9-0.3,1.8-0.4,2.8c-0.2,1.4-0.4,2.6-0.4,2.6c-0.1,0.2-0.6,0.2-0.8,0c-0.2-0.2-2.6-8.9-2.6-9.5c0-0.6,0.3-1.3,0.8-1.6
	c0.6-0.5,22.4-14.1,22.6-14.1C39.2,12.9,39.3,13,39.4,13.1"/>
</svg>
