<svg viewBox="0 0 24 20" fill="none" xmlns="http://www.w3.org/2000/svg"><path
	d="M11.78 4.341C2.253 8.037 1.086 8.498.972 8.619a.588.588 0 0 0 .023.836c.088.085.746.348 2.731 1.092 1.438.539 2.619.985 2.625.991.006.006.459 1.461 1.008 3.234.548 1.774 1.025 3.279 1.06 3.346a.6.6 0 0 0 .66.282c.095-.025.568-.386 1.422-1.085 1.898-1.555 1.828-1.502 2.053-1.55.399-.086.351-.115 3.263 2.01 1.47 1.073 2.717 1.967 2.77 1.988a.603.603 0 0 0 .727-.295C19.396 19.295 23.2.989 23.2.769c0-.134-.131-.345-.285-.46-.271-.2.465-.467-11.135 4.032m6.579-.024a.367.367 0 0 1 .041.118c0 .022-1.894 1.811-4.21 3.975s-4.271 4.005-4.346 4.09c-.14.161-.295.47-.339.68a51.05 51.05 0 0 0-.181 1.25c-.085.622-.177 1.157-.204 1.19-.068.082-.293.076-.37-.01-.099-.112-1.19-4.032-1.19-4.275 0-.254.157-.577.36-.738.283-.226 10.223-6.354 10.309-6.355a.16.16 0 0 1 .13.075" fill-rule="evenodd"/></svg>
