<svg viewBox="0 0 24 14" fill="none" xmlns="http://www.w3.org/2000/svg"><path
	d="M9.06.037c-.203.05-.355.148-.546.352-.21.225-.289.355-.26.429.011.029.131.09.268.136.853.288 1.038.719 1.102 2.566.029.816-.032 2.01-.126 2.459-.07.341-.232.682-.363.768-.237.155-.61-.042-1.002-.528-.643-.798-1.691-2.768-2.309-4.339-.4-1.018-.47-1.138-.753-1.289C4.9.5 4.898.5 3.06.5 1.338.5 1.21.505 1.068.575.864.677.784.839.812 1.097c.033.32.97 2.519 1.806 4.243.997 2.055 2.17 4.021 3.15 5.278.417.536 1.179 1.324 1.632 1.689 1.489 1.2 3.166 1.747 5.155 1.682.7-.023.866-.059 1.066-.235.184-.161.245-.387.3-1.107.112-1.464.57-2.161 1.215-1.849.284.138.542.396 1.217 1.219 1.006 1.226 1.251 1.47 1.726 1.72.482.253.571.262 2.621.262 1.128 0 1.897-.015 1.987-.04.295-.082.491-.428.489-.863-.002-.279-.153-.64-.479-1.146-.447-.69-.847-1.17-1.967-2.358-1.053-1.116-1.176-1.295-1.177-1.712-.001-.433.052-.524 1.774-3.06 1.03-1.518 1.483-2.321 1.736-3.08.218-.656.164-.956-.203-1.14l-.2-.1L20.6.488c-2.14-.013-2.25-.006-2.456.156-.14.11-.205.245-.514 1.056-.792 2.078-1.772 3.838-2.67 4.793-.192.205-.243.237-.402.255-.156.018-.2.005-.312-.089-.137-.115-.243-.296-.329-.559-.04-.122-.058-.784-.076-2.76-.022-2.37-.03-2.617-.095-2.788-.086-.225-.322-.45-.533-.509-.174-.049-3.956-.054-4.153-.006" fill-rule="evenodd"/></svg>
