<?xml version="1.0" encoding="utf-8"?>
<!-- Generator: Adobe Illustrator 24.1.2, SVG Export Plug-In . SVG Version: 6.00 Build 0)  -->
<svg version="1.1" id="Layer_1" xmlns="http://www.w3.org/2000/svg" xmlns:xlink="http://www.w3.org/1999/xlink" x="0px" y="0px"
	 viewBox="0 0 50 50" style="enable-background:new 0 0 50 50;" xml:space="preserve">
<path d="M18.5,10.6c-0.5,0.1-0.8,0.3-1.2,0.8c-0.5,0.5-0.6,0.8-0.6,1c0,0.1,0.3,0.2,0.6,0.3c1.9,0.6,2.3,1.6,2.5,5.7
	c0.1,1.8-0.1,4.5-0.3,5.5c-0.2,0.8-0.5,1.5-0.8,1.7c-0.5,0.3-1.4-0.1-2.2-1.2c-1.4-1.8-3.8-6.2-5.1-9.7c-0.9-2.3-1-2.5-1.7-2.9
	c-0.4-0.2-0.4-0.2-4.5-0.2c-3.8,0-4.1,0-4.4,0.2c-0.5,0.2-0.6,0.6-0.6,1.2c0.1,0.7,2.2,5.6,4,9.4c2.2,4.6,4.8,9,7,11.8
	c0.9,1.2,2.6,2.9,3.6,3.8c3.3,2.7,7,3.9,11.5,3.7c1.6-0.1,1.9-0.1,2.4-0.5c0.4-0.4,0.5-0.9,0.7-2.5c0.2-3.3,1.3-4.8,2.7-4.1
	c0.6,0.3,1.2,0.9,2.7,2.7c2.2,2.7,2.8,3.3,3.8,3.8c1.1,0.6,1.3,0.6,5.8,0.6c2.5,0,4.2,0,4.4-0.1c0.7-0.2,1.1-1,1.1-1.9
	c0-0.6-0.3-1.4-1.1-2.6c-1-1.5-1.9-2.6-4.4-5.3c-2.3-2.5-2.6-2.9-2.6-3.8c0-1,0.1-1.2,4-6.8c2.3-3.4,3.3-5.2,3.9-6.9
	c0.5-1.5,0.4-2.1-0.5-2.5l-0.4-0.2l-4.6,0c-4.8,0-5,0-5.5,0.3c-0.3,0.2-0.5,0.5-1.1,2.4c-1.8,4.6-3.9,8.5-5.9,10.7
	c-0.4,0.5-0.5,0.5-0.9,0.6c-0.3,0-0.4,0-0.7-0.2c-0.3-0.3-0.5-0.7-0.7-1.2c-0.1-0.3-0.1-1.7-0.2-6.1c0-5.3-0.1-5.8-0.2-6.2
	c-0.2-0.5-0.7-1-1.2-1.1C27.4,10.5,19,10.5,18.5,10.6"/>
</svg>
